<svg width="532" height="532" viewBox="0 0 532 532" fill="none" xmlns="http://www.w3.org/2000/svg">
<g filter="url(#filter0_d_6_30)">
<circle cx="266" cy="262" r="262" fill="#3F51B5"/>
</g>
<g filter="url(#filter1_d_6_30)">
<path fill-rule="evenodd" clip-rule="evenodd" d="M162.275 140.414C157.589 135.728 149.991 135.728 145.305 140.414L144.414 141.305C139.728 145.991 139.728 153.589 144.414 158.275L248.552 262.413L144.414 366.552C139.728 371.238 139.728 378.836 144.414 383.522L145.305 384.413C149.991 389.099 157.589 389.099 162.275 384.413L266.413 280.275L370.552 384.413C375.238 389.099 382.836 389.099 387.522 384.413L388.413 383.522C393.099 378.836 393.099 371.238 388.413 366.552L284.274 262.413L388.413 158.275C393.099 153.589 393.099 145.991 388.413 141.305L387.522 140.414C382.836 135.728 375.238 135.728 370.552 140.414L266.413 244.552L162.275 140.414Z" fill="white"/>
</g>
<defs>
<filter id="filter0_d_6_30" x="0" y="0" width="532" height="532" filterUnits="userSpaceOnUse" color-interpolation-filters="sRGB">
<feFlood flood-opacity="0" result="BackgroundImageFix"/>
<feColorMatrix in="SourceAlpha" type="matrix" values="0 0 0 0 0 0 0 0 0 0 0 0 0 0 0 0 0 0 127 0" result="hardAlpha"/>
<feOffset dy="4"/>
<feGaussianBlur stdDeviation="2"/>
<feComposite in2="hardAlpha" operator="out"/>
<feColorMatrix type="matrix" values="0 0 0 0 0 0 0 0 0 0 0 0 0 0 0 0 0 0 0.25 0"/>
<feBlend mode="normal" in2="BackgroundImageFix" result="effect1_dropShadow_6_30"/>
<feBlend mode="normal" in="SourceGraphic" in2="effect1_dropShadow_6_30" result="shape"/>
</filter>
<filter id="filter1_d_6_30" x="136.899" y="136.9" width="259.028" height="259.028" filterUnits="userSpaceOnUse" color-interpolation-filters="sRGB">
<feFlood flood-opacity="0" result="BackgroundImageFix"/>
<feColorMatrix in="SourceAlpha" type="matrix" values="0 0 0 0 0 0 0 0 0 0 0 0 0 0 0 0 0 0 127 0" result="hardAlpha"/>
<feOffset dy="4"/>
<feGaussianBlur stdDeviation="2"/>
<feComposite in2="hardAlpha" operator="out"/>
<feColorMatrix type="matrix" values="0 0 0 0 0 0 0 0 0 0 0 0 0 0 0 0 0 0 0.25 0"/>
<feBlend mode="normal" in2="BackgroundImageFix" result="effect1_dropShadow_6_30"/>
<feBlend mode="normal" in="SourceGraphic" in2="effect1_dropShadow_6_30" result="shape"/>
</filter>
</defs>
</svg>
